<?xml version="1.0" encoding="iso-8859-1"?>
<!-- Generator: Adobe Illustrator 16.0.0, SVG Export Plug-In . SVG Version: 6.00 Build 0)  -->
<!DOCTYPE svg PUBLIC "-//W3C//DTD SVG 1.1//EN" "http://www.w3.org/Graphics/SVG/1.1/DTD/svg11.dtd">
<svg version="1.1" xmlns="http://www.w3.org/2000/svg" xmlns:xlink="http://www.w3.org/1999/xlink" x="0px" y="0px" width="64px"
	 height="64px" viewBox="0 0 64 64" style="enable-background:new 0 0 64 64;" xml:space="preserve">
<g id="testes">
	<g id="logo_x5F_ilha_x5F_ouro">
	</g>
</g>
<g id="logo_x5F_paraiso_x5F_preto">
</g>
<g id="logo_x5F_paraiso_x5F_branco">
</g>
<g id="paraiso_x5F_ico">
	<g id="logo_2_">
		<path id="sol_3_" d="M26.758,16.365l-5.892-8.386c1.992-0.44,4.004-0.409,5.929,0.023c-1.876-3.365-5.39-5.611-9.483-5.616
			C11.202,2.378,6.308,7.384,6.291,13.659c-0.017,5.904,5.062,10.993,10.982,11.009c1.074,0.002,2.115-0.162,3.103-0.46
			l-2.235,0.039C19.928,20.075,22.076,16.727,26.758,16.365z"/>
		<path id="coqueiro" d="M43.946,20.389c-0.407-0.372-0.839-0.7-1.287-0.992l7.478-2.916c-2.627-2.877-6.79-4.057-10.66-2.726
			c0.079-4.103-2.335-7.708-5.891-9.316l-0.419,7.335c-2.434-2.355-5.888-3.295-9.139-2.576l5.045,7.604
			c-3.774,0.294-6.99,2.686-8.431,6.049l8.891,0.328c-3.971,3.289-12.178,9.776-15.234,12.86C10.927,38.98,7.02,51,7.02,51h8.546
			c0,0-0.146-9.261,4.686-13.768c2.8-2.61,9.067-7.938,12.902-11.299l0.862,8.777c3.549-1.79,5.828-5.547,5.481-9.728l7.046,6.428
			C47.998,27.657,47.105,23.259,43.946,20.389z M32.39,16.76l-0.463-0.969l0.463-0.966h0.926l0.463,0.966l-0.463,0.969H32.39z
			 M34.696,19.015h-0.93l-0.463-0.97l0.463-0.966h0.93l0.463,0.966L34.696,19.015z"/>
		<g id="ouro_2_">
			<path d="M39.892,46h9.382l-1.512-4h-7.61l-0.886,3.821L38.38,42h-7.606l-1.515,4h9.38H39.892z M31.974,44.947h-0.968v-0.968
				h0.968V44.947z"/>
			<path d="M50.439,47h-6.932l-0.807,2.984L41.893,47h-6.929l-0.939,3.466L33.089,47h-6.932l-1.38,4h8.807h0.882h7.663h1.144h8.546
				L50.439,47z M27.137,49.785h-0.968v-0.968h0.968V49.785z"/>
			<path d="M43.206,37h-7.492l-1.492,4h10.474L43.206,37z M36.812,40.109h-0.968v-0.968h0.968V40.109z"/>
		</g>
		<g id="chao_2_">
			<path d="M44.742,62H24.131c-0.397,0-0.719-0.145-0.719-1s0.321-1,0.719-1h20.611c0.397,0,0.721,0.145,0.721,1S45.14,62,44.742,62
				z"/>
			<path d="M50.495,59H19.338c-0.396,0-0.719-0.574-0.719-1c0-0.427,0.322-1,0.719-1h31.157c0.396,0,0.718,0.573,0.718,1
				C51.213,58.426,50.892,59,50.495,59z"/>
			<rect x="16" y="54" width="38" height="2"/>
			<path d="M56.403,51h-1.677c0,0-0.221,0-0.49,0h-0.105c0.263,0,0.476,0.219,0.476,0.5S54.394,52,54.131,52H22.722
				c-0.263,0-0.476-0.219-0.476-0.5s0.213-0.5,0.476-0.5c-0.136,0-0.231,0-0.231,0H6.073c-0.529,0-0.958,0.432-0.958,1
				s0.429,1,0.958,1h50.33c0.529,0,0.959-0.432,0.959-1S56.933,51,56.403,51z"/>
			<path style="fill:#E6E6E6;" d="M22.978,50h31.259c0.27,0,0.49,0,0.49,0H22.49C22.49,50,22.708,50,22.978,50z"/>
		</g>
	</g>
</g>
<g id="logo_x5F_ilha_x5F_ouro_copy_2">
</g>
<g id="Layer_5">
</g>
<g id="Layer_2">
</g>
</svg>
