<?xml version="1.0" encoding="iso-8859-1"?>
<!-- Generator: Adobe Illustrator 16.0.0, SVG Export Plug-In . SVG Version: 6.00 Build 0)  -->
<!DOCTYPE svg PUBLIC "-//W3C//DTD SVG 1.1//EN" "http://www.w3.org/Graphics/SVG/1.1/DTD/svg11.dtd">
<svg version="1.1" xmlns="http://www.w3.org/2000/svg" xmlns:xlink="http://www.w3.org/1999/xlink" x="0px" y="0px" width="120px"
	 height="140px" viewBox="0 0 120 140" style="enable-background:new 0 0 120 140;" xml:space="preserve">
<g id="testes">
	<g id="logo_x5F_ilha_x5F_ouro">
	</g>
</g>
<g id="logo_x5F_paraiso_x5F_preto">
</g>
<g id="logo_x5F_paraiso_x5F_branco">
	<g id="logo_6_">
		<path id="coqueiro_7_" style="fill:#FFFFFF;" d="M97.342,45.238c-0.955-0.865-1.962-1.633-3.011-2.312l17.487-6.792
			c-6.145-6.702-15.881-9.448-24.93-6.347c0.185-9.558-5.458-17.959-13.774-21.707L72.137,25.17
			c-5.693-5.486-13.771-7.677-21.371-6.002L62.562,36.88c-8.827,0.683-16.346,6.256-19.716,14.089l20.792,0.768
			c-9.286,7.663-28.477,23.662-35.625,30.843c-7.887,6.854-17.027,34.706-17.027,34.706l20.669-0.257c0,0-1.021-21.17,10.277-31.667
			c6.544-6.079,21.202-18.935,30.17-26.761l2.018,20.223c8.297-4.168,13.627-13.031,12.818-22.77l16.474,14.916
			C106.816,62.228,104.729,51.924,97.342,45.238z M70.243,37.73l-1.01-2.001l1.01-1.999h2.024l1.007,1.999l-1.007,2.001H70.243z
			 M75.791,40.73h-2.019l-1.011-2l1.011-2h2.019l1.012,2L75.791,40.73z"/>
		<path id="sol_5_" style="fill:#FFFFFF;" d="M57.309,36.359L43.783,17.186c4.583-1.01,9.208-0.935,13.633,0.059
			C53.111,9.541,45.029,4.41,35.624,4.397c-14.022-0.02-25.258,11.426-25.295,25.775C10.29,43.672,21.945,55.312,35.537,55.342
			c2.476,0.007,4.875-0.363,7.149-1.049l-5.16,0.088C41.628,44.844,46.562,37.188,57.309,36.359z"/>
		<g id="ouro_6_">
			<path id="ouro3_3_" style="fill:#FFFFFF;" d="M95.395,94.73H78.927l-1.918,4.975l-1.918-4.975H58.627l-3.277,8H75.65h2.714
				h20.303L95.395,94.73z M62,101.73h-3v-1h3V101.73z"/>
			<path id="ouro2_3_" style="fill:#FFFFFF;" d="M101.894,104.73h-15.23l-1.774,5.599l-1.774-5.599H67.886l-2.062,6.498
				l-2.058-6.498H48.535l-3.032,9h19.351h1.939h16.84h2.511h18.778L101.894,104.73z M51,112.73h-3v-1h3V112.73z"/>
			<path id="ouro1_3_" style="fill:#FFFFFF;" d="M85.999,83.73H69.534l-3.276,10h23.014L85.999,83.73z M72,92.73h-3v-1h3V92.73z"/>
		</g>
		<g id="chao_6_">
			<path id="chao4_3_" style="fill:#FFFFFF;" d="M84.022,135.73H40.4c-0.84,0-1.521-0.662-1.521-1.5c0-0.837,0.682-1.5,1.521-1.5
				h43.622c0.84,0,1.522,0.663,1.522,1.5C85.545,135.068,84.862,135.73,84.022,135.73z"/>
			<path id="chao3_3_" style="fill:#FFFFFF;" d="M96.195,130.73H30.256c-0.84,0-1.521-0.664-1.521-1.5c0-0.837,0.682-1.5,1.521-1.5
				h65.939c0.841,0,1.522,0.663,1.522,1.5C97.718,130.066,97.036,130.73,96.195,130.73z"/>
			<rect id="chao2_3_" x="24" y="122.73" style="fill:#FFFFFF;" width="84" height="3"/>
			<path id="chao1_3_" style="fill:#FFFFFF;" d="M112.935,116.73h-3.551c0,0-0.463,1-1.032,1H42.194c-0.571,0-1.034-1-1.034-1H6.416
				c-1.121,0-2.028,0.884-2.028,2.001c0,1.115,0.907,1.999,2.028,1.999h106.519c1.121,0,2.028-0.884,2.028-1.999
				C114.963,117.614,114.056,116.73,112.935,116.73z"/>
		</g>
	</g>
</g>
<g id="paraiso_x5F_ico">
</g>
<g id="logo_x5F_ilha_x5F_ouro_copy_2">
</g>
<g id="Layer_5">
</g>
<g id="Layer_2">
</g>
</svg>
