<svg width="462" height="68" viewBox="0 0 462 68" version="1.1" xmlns="http://www.w3.org/2000/svg" xmlns:xlink="http://www.w3.org/1999/xlink"><title>logo</title><defs><path id="path-1" d="M.042.137h460.614v66.82H.042V.138z"/><path id="path-3" d="M.042.137h460.614v66.82H.042"/></defs><g id="Page-1" stroke="none" stroke-width="1" fill="none" fill-rule="evenodd"><g id="logo"><g id="Logo_Fonds_BJP_3272U-(1)-+-HOME-------SUBSIDIES-+-Line"><g id="Logo_Fonds_BJP_3272U-(1)"><path d="M149.395 28.94V.53h13.71v4.248h-8.796v7.32h6.575v4.248h-6.576V28.94h-4.915" id="Fill-1" fill="#00A293"/><path d="M171.006 21.934c0 2.127.636 3.148 2.617 3.148 1.98 0 2.615-1.02 2.615-3.148v-14.4c0-2.124-.634-3.15-2.615-3.15-1.98 0-2.617 1.026-2.617 3.15v14.4zm-4.912-14.52c0-4.012 2.378-7.277 7.53-7.277 5.148 0 7.526 3.265 7.526 7.278v14.638c0 4.013-2.378 7.278-7.527 7.278-5.15 0-7.53-3.264-7.53-7.277V7.415z" id="Fill-2" fill="#00A293"/><path d="M186.77 28.94V.53h4.558l5.98 16.25h.08V.53h4.44v28.41h-4.28l-6.26-17.748h-.08V28.94h-4.438" id="Fill-3" fill="#00A293"/><path d="M212.36 24.923h1.704c2.614 0 3.525-.98 3.525-3.972V8.518c0-2.99-.912-3.972-3.526-3.972h-1.703v20.378zM207.447.53h7.29c5.072 0 7.767 2.754 7.767 8.58v11.25c0 5.827-2.695 8.58-7.766 8.58h-7.29V.53z" id="Fill-4" fill="#00A293"/><path d="M237.036 7.534c-.197-2.44-1.504-3.15-2.614-3.15-1.585 0-2.456 1.026-2.456 2.795 0 4.84 9.983 7.162 9.983 14.873 0 4.683-3.17 7.278-7.763 7.278-4.56 0-7.174-3.616-7.37-7.868l4.674-.668c.198 2.872 1.347 4.288 2.932 4.288 1.704 0 2.855-.907 2.855-2.597 0-5.626-9.984-7.12-9.984-15.268 0-4.524 2.77-7.08 7.605-7.08 4 0 6.376 2.872 6.816 6.884l-4.678.514" id="Fill-5" fill="#00A293"/><path d="M256.61 46.166h2.47c4.164 0 5.45-1.275 5.45-5.664 0-4.392-1.286-5.667-5.45-5.667h-2.47v11.33zm-6.373 20.32V29.625h9.15c7.867 0 11.52 3.013 11.52 10.878 0 7.862-3.653 10.874-11.52 10.874h-2.776v15.11h-6.373z" id="Fill-6" fill="#00A293"/><g id="Group-13"><mask id="mask-2" fill="#fff"><use xlink:href="#path-1"/></mask><path d="M282.54 46.166h2.265c3.442 0 4.73-1.275 4.73-5.664 0-4.392-1.288-5.667-4.73-5.667h-2.264v11.33zm0 20.32h-6.373V29.625h8.944c7.15 0 10.797 3.013 10.797 10.878 0 5.922-2.314 8.32-4.474 9.292l5.4 16.693h-6.477l-4.525-15.264c-.82.102-2.16.153-3.29.153v15.11z" id="Fill-7" fill="#00A293" mask="url(#mask-2)"/><path d="M309.032 57.4c0 2.757.825 4.085 3.395 4.085 2.57 0 3.394-1.328 3.394-4.085V38.714c0-2.76-.823-4.083-3.393-4.083s-3.395 1.325-3.395 4.084V57.4zm-6.374-18.84c0-5.208 3.084-9.444 9.77-9.444 6.682 0 9.765 4.236 9.765 9.443v18.995c0 5.207-3.083 9.445-9.766 9.445-6.685 0-9.77-4.238-9.77-9.445V38.56z" id="Fill-9" fill="#00A293" mask="url(#mask-2)"/><path d="M327.264 61.485h1.34c2.464 0 3.337-1.02 3.337-3.064V29.625h6.376v29.513c0 4.698-1.902 7.863-8.946 7.863h-2.106v-5.515" id="Fill-10" fill="#00A293" mask="url(#mask-2)"/><path d="M346.66 66.487V29.624h17.066v5.516h-10.693v9.495h8.225v5.517h-8.225v10.824h11.415v5.51h-17.79" id="Fill-11" fill="#00A293" mask="url(#mask-2)"/><path d="M382.41 41.93v-2.86c0-3.115-1.44-4.44-3.084-4.44-2.57 0-3.394 1.325-3.394 4.084V57.4c0 2.757.825 4.085 3.394 4.085 2.315 0 3.084-1.328 3.084-3.725v-4.443h6.375v4.238c0 5.207-3.082 9.445-9.46 9.445-6.682 0-9.766-4.238-9.766-9.445V38.56c0-5.208 3.083-9.444 9.766-9.444 6.377 0 9.46 4.593 9.46 10.11v2.704h-6.376" id="Fill-12" fill="#00A293" mask="url(#mask-2)"/></g><path d="M399.743 35.14h-6.17v-5.516h18.712v5.516h-6.168v31.347h-6.374V35.14" id="Fill-14" fill="#00A293"/><path d="M417.167 66.487V29.624h17.068v5.516h-10.692v9.495h8.224v5.517h-8.224v10.824h11.41v5.51h-17.786" id="Fill-15" fill="#00A293"/><g id="Group-19"><mask id="mask-4" fill="#fff"><use xlink:href="#path-3"/></mask><path d="M441.12 66.487V29.624h5.912l7.763 21.088h.104V29.624h5.756v36.863h-5.553L446.98 43.46h-.1v23.027h-5.76" id="Fill-16" fill="#00A293" mask="url(#mask-4)"/><path d="M0 62.434h1.032c1.9 0 2.574-.787 2.574-2.362v-22.19H8.52v22.742c0 3.62-1.468 6.06-6.894 6.06H0v-4.25" id="Fill-18" fill="#000" mask="url(#mask-4)"/></g><path d="M19.055 59.285c0 2.125.634 3.15 2.615 3.15 1.98 0 2.613-1.025 2.613-3.15v-14.4c0-2.126-.632-3.15-2.613-3.15-1.98 0-2.615 1.024-2.615 3.15v14.4zm-4.913-14.517c0-4.013 2.377-7.28 7.528-7.28 5.15 0 7.528 3.267 7.528 7.28v14.637c0 4.013-2.378 7.28-7.528 7.28-5.15 0-7.528-3.267-7.528-7.28V44.768z" id="Fill-20" fill="#000"/><path d="M34.817 37.88h4.914v21.446c0 2.084.833 3.108 2.615 3.108 1.783 0 2.616-1.024 2.616-3.108V37.88h4.912v21.25c0 4.877-2.85 7.554-7.527 7.554-4.674 0-7.528-2.677-7.528-7.555V37.88" id="Fill-21" fill="#000"/><path d="M60.407 50.63h1.744c2.655 0 3.646-.984 3.646-4.367 0-3.384-.99-4.37-3.645-4.37h-1.743v8.737zm0 15.66h-4.913V37.88h6.895c5.505 0 8.318 2.323 8.318 8.383 0 4.565-1.784 6.412-3.448 7.16l4.162 12.866H66.43L62.94 54.524c-.633.077-1.663.118-2.535.118V66.29z" id="Fill-22" fill="#000"/><path d="M76.17 66.29V37.88h4.556l5.983 16.25h.078V37.88h4.44v28.41h-4.282l-6.26-17.746h-.078V66.29H76.17" id="Fill-23" fill="#000"/><path d="M101.283 55.745h3.963l-1.943-12.198h-.08l-1.94 12.198zM99.7 66.29h-4.756l5.27-28.41h6.1l5.27 28.41h-4.754l-.872-6.296h-5.388l-.87 6.295z" id="Fill-24" fill="#000"/><path d="M115.065 66.29V37.88h4.914v24.16h7.724v4.25h-12.64" id="Fill-25" fill="#000"/><path d="M131.904 37.88h4.913V66.29h-4.913V37.88z" id="Fill-26" fill="#000"/><path d="M152.068 44.885c-.197-2.44-1.506-3.15-2.616-3.15-1.584 0-2.456 1.024-2.456 2.796 0 4.84 9.984 7.163 9.984 14.875 0 4.68-3.168 7.28-7.765 7.28-4.557 0-7.17-3.623-7.37-7.872l4.676-.67c.2 2.874 1.348 4.29 2.932 4.29 1.705 0 2.853-.903 2.853-2.598 0-5.624-9.984-7.12-9.984-15.263 0-4.527 2.776-7.083 7.608-7.083 4 0 6.38 2.872 6.816 6.884l-4.676.51" id="Fill-27" fill="#000"/><path d="M164.425 42.13h-4.756v-4.25h14.42v4.25h-4.753v24.16h-4.912V42.13" id="Fill-28" fill="#000"/><path d="M178.524 37.88h4.912V66.29h-4.912V37.88z" id="Fill-29" fill="#000"/><path d="M189.733 66.29V37.88h13.152v4.25h-8.24v7.32h6.338v4.248h-6.338v8.343h8.796v4.25h-13.707" id="Fill-30" fill="#000"/><path d="M207.95 66.29V37.88h4.914v10.505h.08l5.15-10.504h4.913L217.7 48.467l5.98 17.823h-4.992l-4-13.22h-.08l-1.744 3.146V66.29h-4.913" id="Fill-31" fill="#000"/><path d="M226.648 66.29V37.88h13.154v4.25h-8.242v7.32h6.34v4.248h-6.34v8.343h8.795v4.25h-13.707" id="Fill-32" fill="#000"/><path d="M253.007 13.327h1.083c1.372 0 1.873-.787 1.873-2.296 0-1.53-.583-2.295-2.124-2.295h-.833v4.592zm0-6.7h.936c.98 0 1.728-.663 1.728-1.9 0-1.39-.542-2.112-1.686-2.112h-.977v4.012zm-2.58-6.12h3.828c2.77 0 3.998 1.405 3.998 3.95 0 1.28-.54 2.624-1.79 3.12 1.31.58 2.084 1.613 2.084 3.537 0 2.46-1.107 4.32-4.043 4.32h-4.078V.507z" id="Fill-33" fill="#000"/><path d="M269.043 4.31h2.333v11.124h-2.333V4.31zm0-3.803h2.333v2.11h-2.333V.506z" id="Fill-34" fill="#000"/><path d="M282.1.507h2.336v2.11H282.1V.506zm-1.27 16.334h.396c.647 0 .874-.372.874-.867V4.33h2.336v11.745c0 2.213-1.273 2.873-2.71 2.873h-.895V16.84z" id="Fill-35" fill="#000"/><path d="M294.68 6.213V4.31h6.558v1.903l-4.35 7.322h4.35v1.9h-6.85v-1.9l4.27-7.322h-3.978" id="Fill-36" fill="#000"/><path d="M316.088 7.826c0-1.283-.456-1.82-1.29-1.82-.834 0-1.292.537-1.292 1.82v4.094c0 1.28.458 1.82 1.293 1.82.832 0 1.288-.54 1.288-1.82V7.826zm-4.913.414c0-2.44.96-4.137 3.624-4.137 2.663 0 3.62 1.697 3.62 4.137v3.265c0 2.44-.957 4.134-3.62 4.134-2.666 0-3.625-1.694-3.625-4.135V8.24z" id="Fill-37" fill="#000"/><path d="M328.856 15.434V4.31h2.21v1.118c.975-.827 1.475-1.325 2.827-1.325 1.23 0 1.958.89 1.958 2.337v8.994h-2.33V6.812c0-.558-.333-.807-.833-.807-.498 0-.958.31-1.5.704v8.724h-2.33" id="Fill-38" fill="#000"/><path d="M351.077 6.585c-.458-.33-.877-.58-1.332-.58-.626 0-1.124.333-1.124 1.802v4.132c0 1.468.5 1.8 1.125 1.8.455 0 .874-.25 1.332-.58V6.585zm.124 8.85v-1.158h-.04c-.77.97-1.33 1.362-2.5 1.362-1.455 0-2.37-1.074-2.37-3.1V7.206c0-2.03.915-3.103 2.37-3.103 1.02 0 1.5.415 2.417 1.158V.508h2.332v14.927h-2.21z" id="Fill-39" fill="#000"/><path d="M368.758 8.405v-.58c0-1.282-.46-1.82-1.293-1.82-.832 0-1.29.538-1.29 1.82v.58h2.583zm2.332 1.9h-4.914v1.615c0 1.28.457 1.82 1.29 1.82.832 0 1.292-.54 1.292-1.82v-.247h2.332c-.04 2.355-1.022 3.966-3.625 3.966-2.664 0-3.62-1.694-3.62-4.135V8.24c0-2.44.956-4.137 3.62-4.137 2.665 0 3.625 1.697 3.625 4.137v2.065z" id="Fill-40" fill="#000"/><path d="M381.528 15.434V4.31h2.226v1.303h.04a3.035 3.035 0 0 1 2.645-1.51h.478v2.42c-.414-.102-.813-.227-1.5-.227-.79 0-1.562.495-1.562 1.487v7.65h-2.328" id="Fill-41" fill="#000"/><path d="M401.206 8.405v-.58c0-1.282-.457-1.82-1.288-1.82-.834 0-1.292.538-1.292 1.82v.58h2.58zm2.333 1.9h-4.914v1.615c0 1.28.458 1.82 1.292 1.82.83 0 1.288-.54 1.288-1.82v-.247h2.333c-.042 2.355-1.022 3.966-3.623 3.966-2.665 0-3.624-1.694-3.624-4.135V8.24c0-2.44.96-4.137 3.625-4.137 2.664 0 3.62 1.697 3.62 4.137v2.065z" id="Fill-42" fill="#000"/><path d="M250.016 22.887a.514.514 0 0 1 0-1.026h155.07c.28 0 .515.23.515.515a.515.515 0 0 1-.515.512h-155.07" id="Fill-43" fill="#000"/></g></g></g></g></svg>